# xmcd CD database file
#
# Track frame offsets:
#	150
#	16455
#	35015
#	53317
#	72224
#	91495
#	100717
#	121724
#	141762
#	162673
#
# Disc length: 2344 seconds
#
# Revision: 0
# Processed by: cddbd v1.4PL0 Copyright (c) Steve Scherf et al.
# Submitted via: CDex 1.50
#
DISCID=7c09260a
DTITLE=Holder - Dalec Stran Je Sodni Dan
DYEAR=1900
DGENRE=Blues
TTITLE0=Sistem V Glavi
TTITLE1=Led V Krvi
TTITLE2=Lejla
TTITLE3=Poljubi Me Na Usta
TTITLE4=(Ti Nisi) Na Moji Strani
TTITLE5=Session No.6
TTITLE6=Ona Ve
TTITLE7=Kurja Koza
TTITLE8=Strup
TTITLE9=Avtostop
EXTD=
EXTT0=
EXTT1=
EXTT2=
EXTT3=
EXTT4=
EXTT5=
EXTT6=
EXTT7=
EXTT8=
EXTT9=
PLAYORDER=
